<mxfile host="app.diagrams.net" agent="Mozilla/5.0 (Windows NT 10.0; Win64; x64) AppleWebKit/537.36 (KHTML, like Gecko) Chrome/136.0.0.0 Safari/537.36" version="27.0.1">
  <diagram name="Page-1" id="5RvBNvhsf5XZX_KKaHVk">
    <mxGraphModel dx="947" dy="598" grid="1" gridSize="10" guides="1" tooltips="1" connect="1" arrows="1" fold="1" page="1" pageScale="1" pageWidth="850" pageHeight="1100" math="0" shadow="0">
      <root>
        <mxCell id="0" />
        <mxCell id="1" parent="0" />
        <mxCell id="Q5_4DgrGPyShC4u1GyPg-1" value="&lt;font style=&quot;font-size: 14px;&quot;&gt;Supervised&lt;/font&gt;&lt;div&gt;&lt;font style=&quot;font-size: 14px;&quot;&gt;Agentic AI&lt;/font&gt;&lt;/div&gt;&lt;div&gt;&lt;font style=&quot;font-size: 14px;&quot;&gt;Platform&lt;/font&gt;&lt;/div&gt;" style="rounded=0;whiteSpace=wrap;html=1;" vertex="1" parent="1">
          <mxGeometry x="230" y="270" width="180" height="90" as="geometry" />
        </mxCell>
        <mxCell id="Q5_4DgrGPyShC4u1GyPg-6" style="rounded=0;orthogonalLoop=1;jettySize=auto;html=1;exitX=1;exitY=0.5;exitDx=0;exitDy=0;entryX=0;entryY=0.5;entryDx=0;entryDy=0;" edge="1" parent="1" source="Q5_4DgrGPyShC4u1GyPg-2" target="Q5_4DgrGPyShC4u1GyPg-3">
          <mxGeometry relative="1" as="geometry" />
        </mxCell>
        <mxCell id="Q5_4DgrGPyShC4u1GyPg-7" style="rounded=0;orthogonalLoop=1;jettySize=auto;html=1;exitX=1;exitY=0.5;exitDx=0;exitDy=0;entryX=0;entryY=0.5;entryDx=0;entryDy=0;" edge="1" parent="1" source="Q5_4DgrGPyShC4u1GyPg-2" target="Q5_4DgrGPyShC4u1GyPg-4">
          <mxGeometry relative="1" as="geometry" />
        </mxCell>
        <mxCell id="Q5_4DgrGPyShC4u1GyPg-8" style="rounded=0;orthogonalLoop=1;jettySize=auto;html=1;exitX=1;exitY=0.5;exitDx=0;exitDy=0;entryX=0;entryY=0.5;entryDx=0;entryDy=0;" edge="1" parent="1" source="Q5_4DgrGPyShC4u1GyPg-2" target="Q5_4DgrGPyShC4u1GyPg-5">
          <mxGeometry relative="1" as="geometry" />
        </mxCell>
        <mxCell id="Q5_4DgrGPyShC4u1GyPg-2" value="Logical&lt;div&gt;MCP Server&lt;/div&gt;" style="whiteSpace=wrap;html=1;aspect=fixed;dashed=1;" vertex="1" parent="1">
          <mxGeometry x="385" y="300" width="80" height="80" as="geometry" />
        </mxCell>
        <mxCell id="Q5_4DgrGPyShC4u1GyPg-3" value="Integration #1" style="rounded=0;whiteSpace=wrap;html=1;" vertex="1" parent="1">
          <mxGeometry x="610" y="170" width="120" height="60" as="geometry" />
        </mxCell>
        <mxCell id="Q5_4DgrGPyShC4u1GyPg-4" value="Integration #2" style="rounded=0;whiteSpace=wrap;html=1;" vertex="1" parent="1">
          <mxGeometry x="610" y="290" width="120" height="60" as="geometry" />
        </mxCell>
        <mxCell id="Q5_4DgrGPyShC4u1GyPg-5" value="Integration #3" style="rounded=0;whiteSpace=wrap;html=1;" vertex="1" parent="1">
          <mxGeometry x="610" y="400" width="120" height="60" as="geometry" />
        </mxCell>
      </root>
    </mxGraphModel>
  </diagram>
</mxfile>
